<?xml version="1.0" encoding="UTF-8"?>
<svg id="Layer_1" data-name="Layer 1" xmlns="http://www.w3.org/2000/svg" viewBox="0 0 442.55 201.28">
  <defs>
    <style>
      .cls-1 {
        fill: none;
        stroke: #46789e;
        stroke-miterlimit: 10;
        stroke-width: 3px;
      }
    </style>
  </defs>
  <path class="cls-1" d="M441.35,61.59C414.07,25.11,370.54,1.5,321.48,1.5h-96.35s-2.4,0-2.4,0H126.38c-49.05,0-92.59,23.61-119.87,60.09"/>
  <path class="cls-1" d="M427.55,62.41c-25.76-31.63-65.02-51.82-108.99-51.82h-92.73s-3.81,0-3.81,0h-92.73c-43.97,0-83.22,20.2-108.99,51.82"/>
  <path class="cls-1" d="M436.04,139.69c-27.28,36.48-70.82,60.09-119.87,60.09h-96.35s-2.4,0-2.4,0H121.07c-49.05,0-92.59-23.61-119.87-60.09"/>
  <path class="cls-1" d="M422.24,138.87c-25.76,31.63-65.02,51.82-108.99,51.82h-92.73s-3.81,0-3.81,0H123.99c-43.97,0-83.22-20.2-108.99-51.82"/>
</svg>