<svg version="1.1" id="Layer_1" xmlns="http://www.w3.org/2000/svg" xmlns:xlink="http://www.w3.org/1999/xlink" x="0px" y="0px"
	 viewBox="0 0 159.4 235.8" >
<style type="text/css">
	.st0{fill:none;stroke:#8FAF3D;stroke-width:3;stroke-linejoin:round;}
</style>
<g id="leaf_1">
	<path class="st0" d="M124,171.9c0,0-1.8-6.7-6.2-16.3s-6.6-35.3,4.6-43.9l4.1-4.2c0,0-1.9,15.8-1.7,24.7
		c0.8,26.6,8.3,31.1,6.5,42.7s-4.9,33.8-4.9,33.8L124,171.9L124,171.9z"/>
	<path class="st0" d="M128.7,198.5c0,0,7.1-18.4,6.9-27.3s-10.4-59.1-9.1-63.8c0,0,19.3,46.9,14.6,65.9S122,220.2,122,220.2
		L128.7,198.5L128.7,198.5z"/>
</g>
<g id="leaf_2">
	<path class="st0" d="M71.3,139.4c0,0-12.4-4.7-22-14.9S25.8,96.5,16.5,95S1.5,92,1.5,92s15.3,10.2,22.2,18.7
		c10.1,12.4,14.5,19,27.6,25.5s38.2,16.4,38.2,16.4L71.3,139.4L71.3,139.4z"/>
	<path class="st0" d="M89.5,152.6c0,0-26.3-4.4-41.7-13.3c-12.8-7.4-19.4-13.2-26.4-23.5S1.5,92,1.5,92s1,10.7,9.2,24.4
		c6.7,11.1,23.9,27.5,45.5,34.5c14.2,4.6,41.9,10.4,45.2,13.1C110,170.5,89.5,152.6,89.5,152.6z"/>
</g>
<g id="leaf_3">
	<path class="st0" d="M86.9,134.7c0,0,5.6-3-7.6-14.7C66.2,108.4,61,93.9,58.7,81.6s5.9-28.8,7.5-27.8s-3,26,9.8,42.5
		c9.8,12.6,16.7,19.4,18.6,28.3s-0.2,18-0.2,18L86.9,134.7L86.9,134.7z"/>
	<path class="st0" d="M96.1,142.5c0,0,9.9-15.1-4.9-35c-20.5-27.5-27.2-35.9-25-53.7c0,0,6.3,20.2,12.2,29.2
		c11.6,17.3,25.8,26.6,26.4,39.2S96.1,142.5,96.1,142.5L96.1,142.5z"/>
</g>
<g id="leaf_4">
	<path class="st0" d="M32.5,77.3c-21.3-51.8,22-57.4,22-57.4c34.1-4.3,46-12.4,46-12.4s0.3,12.1-25.4,17s-31.8,8.6-31.8,8.6
		C25.9,45.4,31.4,55.8,32.3,60.6S32.5,77.3,32.5,77.3L32.5,77.3z"/>
	<path class="st0" d="M29.7,74.4c0,0-10.7-18.1-7.4-32.5c0,0,4.2-23.2,32.5-26.5s45.7-7.9,45.7-7.9s-28-12.2-58.1-1.9
		S13.8,46.9,16.7,57.5c1.7,6.1,25,47.3,21,39.4C35.5,89.3,29.7,74.4,29.7,74.4L29.7,74.4z"/>
</g>
<g id="stem">
	<path class="st0" d="M87.2,38.8c0,0-3,1.4-3.3,7.3c0,0-12.9-6.8-30.7,7.6c-12.5,10.2-15.8,32.6,2.1,53.7
		c9,10.6,25.4,24.9,42.6,37.6c0,0,37.4,25.1,24.1,75.1c0,0-11.7,15.3-16.9,14s-4.2-0.3-4.6-3.3c0,0,15.2-9.8,16.3-22.9
		s-1.9-27.4-11.4-40.5s-51.6-47.5-51.6-47.5s-25.8-21-18.6-55C35.2,65.1,49.7,33.1,87.2,38.8z"/>
</g>
<g id="stamens">
	<circle class="st0" cx="153.8" cy="59.4" r="4.1"/>
	<circle class="st0" cx="146.1" cy="76.5" r="5.1"/>
	<circle class="st0" cx="135.6" cy="90.7" r="4.3"/>
	<polygon class="st0" points="136.4,56.5 149.8,60.6 149.8,56.5 138.5,51.5 	"/>
	<polygon class="st0" points="130.6,63.8 143.4,72.2 141,74.8 128.7,70.1 	"/>
	<polygon class="st0" points="123.5,76.7 134.2,86.6 131.5,89.3 122.4,83.7 121.9,82.3 	"/>
</g>
<g id="bulb">
	<path class="st0" d="M146.1,54.1c2.4-6.1,4.1-12.4,5.1-18.8"/>
	<path class="st0" d="M139.3,67.9c1.8-3,3.4-6,4.8-9"/>
	<path class="st0" d="M130,81.1c2.2-2.7,4.2-5.4,6.1-8.2"/>
	<path class="st0" d="M112.3,99c4.8-4.1,9.2-8.3,13.1-12.6"/>
	<path class="st0" d="M87.4,56.5c0,0,5.4,20.3,29.1,34.8l-4.2,7.7C112.3,99,88.4,80.6,87.4,56.5z"/>
	<path class="st0" d="M101.3,33.1c0,0,34.6-3,43.7,8.8l6.2-6.7C151.2,35.2,126,18.9,101.3,33.1z"/>
	<path class="st0" d="M97.6,37.5c0,0,40.4-5,45.9,8.4l-4.9,5.6C138.5,51.5,127.1,41.6,97.6,37.5L97.6,37.5z"/>
	<path class="st0" d="M94.1,42.4c0,0,21.3-1.8,41.5,12.3l-4.9,9.1C130.7,63.8,94.8,46.2,94.1,42.4L94.1,42.4z"/>
	<path class="st0" d="M91.3,47.2c0,0,16.4,7,37.4,20.4l-5.3,9.1C123.5,76.7,97.4,61.5,91.3,47.2L91.3,47.2z"/>
	<path class="st0" d="M89.8,50.2c0,0,14.2,20.1,32.6,29.5l-4.8,8.3C117.6,88,92,71.8,89.8,50.2z"/>
	<path class="st0" d="M87.4,56.5c0,0,3-11.8,13.9-23.4C101.3,33.1,74.4,35.7,87.4,56.5z"/>
</g>
</svg>
