<?xml version="1.0" encoding="UTF-8"?>
<svg xmlns="http://www.w3.org/2000/svg" viewBox="0 0 159.4 235.79">
  <defs>
    <style>
      .cls-1 {
        fill: none;
        stroke: #8faf3d;
        stroke-linejoin: round;
        stroke-width: 3px;
      }
    </style>
  </defs>
  <g id="leaf_1" data-name="leaf 1">
    <path class="cls-1" d="M124,171.85s-1.75-6.73-6.19-16.31-6.55-35.26,4.55-43.9l4.09-4.2s-1.91,15.83-1.66,24.75c.76,26.61,8.29,31.06,6.49,42.74s-4.86,33.79-4.86,33.79l-2.42-36.86Z"/>
    <path class="cls-1" d="M128.74,198.52s7.12-18.45,6.86-27.32-6.89-27.87-6.86-33.7c.1-18.98-3.5-25.38-2.28-30.05,0,0,8.42,16.44,9.91,28.77s9.41,18.17,4.66,37.08-19.08,46.88-19.08,46.88l6.8-21.66Z"/>
  </g>
  <g id="leaf_2" data-name="leaf 2">
    <path class="cls-1" d="M71.34,139.43s-12.38-4.67-21.95-14.95-23.58-27.98-32.92-29.52-14.97-2.94-14.97-2.94c0,0,20.33,16.81,22.2,18.68s14.48,19.01,27.56,25.5,38.25,16.44,38.25,16.44l-18.17-13.22Z"/>
    <path class="cls-1" d="M89.51,152.65s-28.91-7.62-33.23-9.02-27.91-17.51-34.91-27.79S1.5,92.03,1.5,92.03c0,0,.95,10.67,9.25,24.36,6.7,11.06,30.71,32.85,45.53,34.49s41.98,10.29,45.25,13.09-12.02-11.32-12.02-11.32Z"/>
  </g>
  <g id="leaf_3" data-name="leaf 3">
    <path class="cls-1" d="M86.94,134.72s5.56-2.96-7.59-14.65c-13.15-11.7-18.33-26.16-20.7-38.47s5.92-28.77,7.55-27.83-3.01,26.02,9.81,42.45c9.81,12.58,16.66,19.4,18.6,28.27s-.25,17.98-.25,17.98l-7.42-7.74Z"/>
    <path class="cls-1" d="M96.09,142.47s9.89-15.14-4.92-35.03c-20.51-27.54-27.22-35.86-24.97-53.67,0,0,6.26,20.25,12.25,29.21,11.56,17.3,25.75,26.57,26.37,39.18s-8.72,20.32-8.72,20.32Z"/>
  </g>
  <g id="leaf_4" data-name="leaf 4">
    <path class="cls-1" d="M32.52,77.3C11.26,25.48,54.5,19.94,54.5,19.94c34.1-4.34,45.96-12.43,45.96-12.43,0,0,.28,12.14-25.44,17.05-25.72,4.91-31.79,8.56-31.79,8.56-17.34,12.32-10.94,27.45-10.94,27.45l.23,16.72Z"/>
    <path class="cls-1" d="M29.71,74.39s-10.68-18.14-7.41-32.48c0,0,4.2-23.22,32.46-26.48s45.7-7.92,45.7-7.92c0,0-27.95-12.17-58.08-1.89S16.69,57.47,16.69,57.47c0,0,24.71,50.74,22.45,42.81-2.14-7.51-9.44-25.88-9.44-25.88Z"/>
  </g>
  <g id="stem">
    <path class="cls-1" d="M87.16,38.81s-3.04,1.44-3.3,7.31c0,0-12.91-6.8-30.72,7.64-12.54,10.17-15.84,32.59,2.13,53.67,8.99,10.55,25.38,24.9,42.58,37.64,0,0,37.39,25.14,24.09,75.09,0,0-11.67,15.34-16.9,14.04s-4.25-.33-4.58-3.26c0,0,15.21-9.79,16.26-22.85s-1.89-27.42-11.36-40.48-51.58-47.54-51.58-47.54c0,0-25.79-21.02-18.61-54.97,0,0,14.57-32,51.99-26.29Z"/>
  </g>
  <g id="stamens">
    <circle class="cls-1" cx="153.83" cy="59.38" r="4.07"/>
    <circle class="cls-1" cx="146.12" cy="76.49" r="5.1"/>
    <circle class="cls-1" cx="135.59" cy="90.66" r="4.31"/>
    <polygon class="cls-1" points="136.36 56.52 149.77 60.57 149.77 56.52 138.46 51.48 136.36 56.52"/>
    <polygon class="cls-1" points="130.65 63.76 143.41 72.17 141.01 74.8 128.74 70.1 130.65 63.76"/>
    <polygon class="cls-1" points="123.47 76.68 134.18 86.6 131.52 89.28 122.36 83.68 121.93 82.33 123.47 76.68"/>
  </g>
  <g id="bulb">
    <path class="cls-1" d="M146.12,54.07c2.41-6.1,4.11-12.38,5.1-18.85"/>
    <path class="cls-1" d="M139.3,67.88c1.77-2.96,3.36-5.97,4.78-9.03"/>
    <path class="cls-1" d="M129.97,81.11c2.2-2.69,4.24-5.42,6.12-8.19"/>
    <path class="cls-1" d="M112.31,99c4.79-4.11,9.16-8.32,13.11-12.64"/>
    <path class="cls-1" d="M87.42,56.52s5.44,20.32,29.12,34.83l-4.23,7.65s-23.94-18.4-24.89-42.48Z"/>
    <path class="cls-1" d="M101.31,33.13s34.6-3.01,43.69,8.79l6.22-6.7s-25.19-16.28-49.91-2.09Z"/>
    <path class="cls-1" d="M97.55,37.52s40.44-5.01,45.86,8.39l-4.94,5.58s-11.34-9.93-40.91-13.97Z"/>
    <path class="cls-1" d="M94.08,42.41s21.26-1.76,41.52,12.27l-4.94,9.09s-35.84-17.61-36.57-21.36Z"/>
    <path class="cls-1" d="M91.3,47.17s16.39,7.02,37.44,20.42l-5.26,9.09s-26.11-15.16-32.17-29.51Z"/>
    <path class="cls-1" d="M89.81,50.21s14.21,20.09,32.55,29.5l-4.78,8.29s-25.54-16.25-27.77-37.79Z"/>
    <path class="cls-1" d="M87.42,56.52s3.04-11.83,13.89-23.39c0,0-26.93,2.55-13.89,23.39Z"/>
  </g>
</svg>